<svg xmlns="http://www.w3.org/2000/svg" viewBox="0 0 960 600" role="img" aria-labelledby="title desc">
  <title id="title">Mockup de seguimiento de notas y tareas</title>
  <desc id="desc">Tablero ficticio con notas, estados y seguimiento demo.</desc>
  <rect width="960" height="600" rx="32" fill="#f8f3e7"/>
  <rect x="34" y="34" width="892" height="532" rx="26" fill="#ffffff" stroke="#ead8af"/>
  <text x="74" y="92" fill="#123039" font-family="Inter, Arial" font-size="32" font-weight="900">AG Note</text>
  <text x="74" y="124" fill="#5c6f76" font-family="Inter, Arial" font-size="17" font-weight="700">Seguimiento demo por estados</text>
  <rect x="74" y="166" width="248" height="326" rx="20" fill="#fbfcfb" stroke="#e2e8df"/>
  <text x="102" y="208" fill="#167d86" font-family="Inter, Arial" font-size="18" font-weight="900">Por hacer</text>
  <rect x="102" y="236" width="192" height="70" rx="14" fill="#ffffff" stroke="#d8e3e5"/>
  <text x="122" y="274" fill="#123039" font-family="Inter, Arial" font-size="16" font-weight="800">Nota demo 01</text>
  <rect x="102" y="326" width="192" height="70" rx="14" fill="#ffffff" stroke="#d8e3e5"/>
  <text x="122" y="364" fill="#123039" font-family="Inter, Arial" font-size="16" font-weight="800">Filtro activo</text>
  <rect x="356" y="166" width="248" height="326" rx="20" fill="#fff8ec" stroke="#ecd7ba"/>
  <text x="384" y="208" fill="#bf7a23" font-family="Inter, Arial" font-size="18" font-weight="900">En proceso</text>
  <rect x="384" y="236" width="192" height="70" rx="14" fill="#ffffff" stroke="#ecd7ba"/>
  <text x="404" y="274" fill="#123039" font-family="Inter, Arial" font-size="16" font-weight="800">Revision demo</text>
  <rect x="384" y="326" width="192" height="70" rx="14" fill="#ffffff" stroke="#ecd7ba"/>
  <text x="404" y="364" fill="#123039" font-family="Inter, Arial" font-size="16" font-weight="800">Asignado</text>
  <rect x="638" y="166" width="248" height="326" rx="20" fill="#eff5f0" stroke="#d4e2d8"/>
  <text x="666" y="208" fill="#4f7a5c" font-family="Inter, Arial" font-size="18" font-weight="900">Listo</text>
  <rect x="666" y="236" width="192" height="70" rx="14" fill="#ffffff" stroke="#d4e2d8"/>
  <text x="686" y="274" fill="#123039" font-family="Inter, Arial" font-size="16" font-weight="800">Estado cerrado</text>
  <rect x="666" y="326" width="192" height="70" rx="14" fill="#ffffff" stroke="#d4e2d8"/>
  <text x="686" y="364" fill="#123039" font-family="Inter, Arial" font-size="16" font-weight="800">Reporte demo</text>
  <rect x="74" y="516" width="812" height="18" rx="9" fill="#ead8af"/>
  <rect x="74" y="516" width="482" height="18" rx="9" fill="#bf7a23"/>
</svg>
