<svg xmlns="http://www.w3.org/2000/svg" viewBox="0 0 960 600" role="img" aria-labelledby="title desc">
<title id="title">Panel ficticio de contratos</title><desc id="desc">Interfaz recreada de seguimiento administrativo con contenido ficticio.</desc>
<rect width="960" height="600" rx="30" fill="#eef5f4"/><rect x="28" y="28" width="904" height="544" rx="24" fill="#fff" stroke="#d9e2e5"/>
<rect x="28" y="28" width="904" height="70" rx="24" fill="#0f2c35"/><rect x="28" y="74" width="904" height="24" fill="#0f2c35"/>
<circle cx="64" cy="63" r="7" fill="#8ed5ce"/><circle cx="88" cy="63" r="7" fill="#bf7a23"/><text x="122" y="70" fill="#fff" font-family="Arial,sans-serif" font-size="23" font-weight="700">Contratos y cobranza</text>
<text x="66" y="145" fill="#123039" font-family="Arial" font-size="26" font-weight="700">Resumen de contratos</text>
<rect x="66" y="170" width="250" height="92" rx="12" fill="#f4f8f7" stroke="#d9e2e5"/><text x="88" y="208" fill="#5c6f76" font-family="Arial" font-size="17">Documentación</text><text x="88" y="238" fill="#167d86" font-family="Arial" font-size="22" font-weight="700">Revisión pendiente</text>
<rect x="334" y="170" width="250" height="92" rx="12" fill="#fffaf0" stroke="#e8ddc8"/><text x="356" y="208" fill="#5c6f76" font-family="Arial" font-size="17">Cobranza</text><text x="356" y="238" fill="#bf7a23" font-family="Arial" font-size="22" font-weight="700">Próximos pagos</text>
<rect x="602" y="170" width="290" height="92" rx="12" fill="#f3f7f3" stroke="#d9e2e5"/><text x="624" y="208" fill="#5c6f76" font-family="Arial" font-size="17">Acceso</text><text x="624" y="238" fill="#4f7a5c" font-family="Arial" font-size="22" font-weight="700">Roles configurados</text>
<rect x="66" y="286" width="826" height="228" rx="14" fill="#fbfcfb" stroke="#d9e2e5"/><text x="94" y="328" fill="#5c6f76" font-family="Arial" font-size="17" font-weight="700">SEGUIMIENTO</text>
<g font-family="Arial" font-size="18" fill="#123039"><text x="94" y="374">Contrato de muestra</text><text x="94" y="424">Renovación de documento</text><text x="94" y="474">Comprobante simulado</text></g><g fill="#167d86"><rect x="650" y="350" width="154" height="28" rx="14"/><rect x="650" y="400" width="122" height="28" rx="14"/><rect x="650" y="450" width="174" height="28" rx="14"/></g><g fill="#fff" font-family="Arial" font-size="14"><text x="672" y="369">EN REVISIÓN</text><text x="672" y="419">PENDIENTE</text><text x="672" y="469">DOCUMENTADO</text></g>
</svg>