<svg xmlns="http://www.w3.org/2000/svg" viewBox="0 0 960 600" role="img" aria-labelledby="title desc">
  <title id="title">Mockup de plataforma administrativa para restaurante</title>
  <desc id="desc">Dashboard ficticio con pedidos, menu e inventario demo.</desc>
  <rect width="960" height="600" rx="32" fill="#fff7ec"/>
  <rect x="36" y="34" width="888" height="532" rx="26" fill="#ffffff" stroke="#ecd7ba"/>
  <rect x="68" y="68" width="210" height="464" rx="22" fill="#123039"/>
  <text x="96" y="118" fill="#ffffff" font-family="Inter, Arial" font-size="26" font-weight="900">Delice Flow</text>
  <text x="96" y="152" fill="#a9d8d4" font-family="Inter, Arial" font-size="16" font-weight="700">Operacion demo</text>
  <rect x="96" y="198" width="150" height="38" rx="10" fill="#214650"/>
  <text x="116" y="223" fill="#ffffff" font-family="Inter, Arial" font-size="16" font-weight="800">Pedidos</text>
  <rect x="96" y="258" width="150" height="38" rx="10" fill="#183c46"/>
  <text x="116" y="283" fill="#d2e7e5" font-family="Inter, Arial" font-size="16" font-weight="800">Inventario</text>
  <rect x="96" y="318" width="150" height="38" rx="10" fill="#183c46"/>
  <text x="116" y="343" fill="#d2e7e5" font-family="Inter, Arial" font-size="16" font-weight="800">Menu</text>
  <rect x="318" y="72" width="166" height="126" rx="18" fill="#f8fbfa" stroke="#d8e3e5"/>
  <text x="344" y="112" fill="#5c6f76" font-family="Inter, Arial" font-size="18" font-weight="700">Pedidos hoy</text>
  <text x="344" y="164" fill="#123039" font-family="Inter, Arial" font-size="48" font-weight="900">19</text>
  <rect x="512" y="72" width="166" height="126" rx="18" fill="#fff8ec" stroke="#ecd7ba"/>
  <text x="538" y="112" fill="#5c6f76" font-family="Inter, Arial" font-size="18" font-weight="700">Menu activo</text>
  <text x="538" y="164" fill="#123039" font-family="Inter, Arial" font-size="48" font-weight="900">42</text>
  <rect x="706" y="72" width="166" height="126" rx="18" fill="#eff5f0" stroke="#d4e2d8"/>
  <text x="732" y="112" fill="#5c6f76" font-family="Inter, Arial" font-size="18" font-weight="700">Stock OK</text>
  <text x="732" y="164" fill="#123039" font-family="Inter, Arial" font-size="48" font-weight="900">87%</text>
  <rect x="318" y="238" width="554" height="294" rx="20" fill="#fbfcfb" stroke="#d8e3e5"/>
  <text x="350" y="284" fill="#123039" font-family="Inter, Arial" font-size="22" font-weight="850">Ordenes recientes</text>
  <rect x="350" y="318" width="218" height="62" rx="14" fill="#ffffff" stroke="#e1e8ea"/>
  <text x="374" y="356" fill="#123039" font-family="Inter, Arial" font-size="17" font-weight="800">Pedido #104</text>
  <rect x="596" y="318" width="218" height="62" rx="14" fill="#ffffff" stroke="#e1e8ea"/>
  <text x="620" y="356" fill="#bf7a23" font-family="Inter, Arial" font-size="17" font-weight="800">En cocina</text>
  <rect x="350" y="402" width="218" height="62" rx="14" fill="#ffffff" stroke="#e1e8ea"/>
  <text x="374" y="440" fill="#167d86" font-family="Inter, Arial" font-size="17" font-weight="800">Proveedor demo</text>
  <rect x="596" y="402" width="218" height="62" rx="14" fill="#ffffff" stroke="#e1e8ea"/>
  <text x="620" y="440" fill="#4f7a5c" font-family="Inter, Arial" font-size="17" font-weight="800">Inventario listo</text>
</svg>
