<svg xmlns="http://www.w3.org/2000/svg" viewBox="0 0 960 600" role="img" aria-labelledby="title desc">
  <title id="title">Mockup de proyecto de finanzas</title>
  <desc id="desc">Dashboard ficticio con ingresos, gastos y graficas demo.</desc>
  <rect width="960" height="600" rx="32" fill="#edf5f3"/>
  <rect x="34" y="34" width="892" height="532" rx="26" fill="#ffffff" stroke="#cfdcdf"/>
  <rect x="70" y="72" width="820" height="78" rx="20" fill="#123039"/>
  <text x="102" y="122" fill="#ffffff" font-family="Inter, Arial" font-size="29" font-weight="900">Proyecto Finanzas</text>
  <text x="694" y="122" fill="#a9d8d4" font-family="Inter, Arial" font-size="17" font-weight="800">Demo publico</text>
  <rect x="70" y="188" width="250" height="126" rx="18" fill="#f8fbfa" stroke="#d8e3e5"/>
  <text x="98" y="228" fill="#5c6f76" font-family="Inter, Arial" font-size="18" font-weight="700">Ingresos</text>
  <text x="98" y="276" fill="#123039" font-family="Inter, Arial" font-size="44" font-weight="900">$24k</text>
  <rect x="354" y="188" width="250" height="126" rx="18" fill="#fff8ec" stroke="#ecd7ba"/>
  <text x="382" y="228" fill="#5c6f76" font-family="Inter, Arial" font-size="18" font-weight="700">Gastos</text>
  <text x="382" y="276" fill="#123039" font-family="Inter, Arial" font-size="44" font-weight="900">$12k</text>
  <rect x="638" y="188" width="252" height="126" rx="18" fill="#eff5f0" stroke="#d4e2d8"/>
  <text x="666" y="228" fill="#5c6f76" font-family="Inter, Arial" font-size="18" font-weight="700">Balance</text>
  <text x="666" y="276" fill="#123039" font-family="Inter, Arial" font-size="44" font-weight="900">$12k</text>
  <rect x="70" y="354" width="520" height="146" rx="18" fill="#fbfcfb" stroke="#d8e3e5"/>
  <text x="98" y="394" fill="#123039" font-family="Inter, Arial" font-size="22" font-weight="850">Flujo mensual</text>
  <rect x="116" y="448" width="62" height="32" rx="8" fill="#9fc8c8"/>
  <rect x="204" y="420" width="62" height="60" rx="8" fill="#167d86"/>
  <rect x="292" y="434" width="62" height="46" rx="8" fill="#9fc8c8"/>
  <rect x="380" y="400" width="62" height="80" rx="8" fill="#4f7a5c"/>
  <rect x="468" y="372" width="62" height="108" rx="8" fill="#315f91"/>
  <rect x="626" y="354" width="264" height="146" rx="18" fill="#fbfcfb" stroke="#d8e3e5"/>
  <circle cx="704" cy="428" r="46" fill="none" stroke="#d8e3e5" stroke-width="18"/>
  <path d="M704 382 A46 46 0 0 1 748 442" fill="none" stroke="#167d86" stroke-width="18" stroke-linecap="round"/>
  <text x="778" y="420" fill="#123039" font-family="Inter, Arial" font-size="18" font-weight="850">API</text>
  <text x="778" y="450" fill="#5c6f76" font-family="Inter, Arial" font-size="16" font-weight="700">Front + Back</text>
</svg>
