<svg xmlns="http://www.w3.org/2000/svg" viewBox="0 0 960 600" role="img" aria-labelledby="title desc">
<title id="title">Punto de venta ficticio</title><desc id="desc">Interfaz original de cobro ilustrativo con artículos y montos no reales.</desc>
<rect width="960" height="600" rx="30" fill="#edf3f4"/><rect x="28" y="28" width="904" height="544" rx="24" fill="#fff" stroke="#d9e2e5"/>
<rect x="28" y="28" width="904" height="70" rx="24" fill="#0f2c35"/><rect x="28" y="74" width="904" height="24" fill="#0f2c35"/>
<circle cx="64" cy="63" r="7" fill="#8ed5ce"/><circle cx="88" cy="63" r="7" fill="#bf7a23"/><text x="122" y="70" fill="#fff" font-family="Arial,sans-serif" font-size="23" font-weight="700">Punto de venta</text>
<rect x="66" y="132" width="536" height="390" rx="16" fill="#fbfcfb" stroke="#d9e2e5"/><text x="94" y="174" fill="#123039" font-family="Arial" font-size="23" font-weight="700">Venta de demostración</text>
<g fill="#5c6f76" font-family="Arial" font-size="16"><text x="96" y="232">Artículo de muestra</text><text x="96" y="286">Producto ficticio</text><text x="96" y="340">Registro genérico</text></g><g fill="#123039" font-family="Arial" font-size="17" text-anchor="end"><text x="562" y="232">$ —</text><text x="562" y="286">$ —</text><text x="562" y="340">$ —</text></g><g stroke="#e5ebec"><path d="M94 248h470M94 302h470M94 356h470"/></g>
<rect x="94" y="392" width="470" height="74" rx="12" fill="#eef5f4"/><text x="118" y="424" fill="#5c6f76" font-family="Arial" font-size="16">Total de ejemplo</text><text x="118" y="451" fill="#167d86" font-family="Arial" font-size="22" font-weight="700">Importe ficticio</text>
<rect x="628" y="132" width="264" height="390" rx="16" fill="#183c46"/><text x="654" y="178" fill="#fff" font-family="Arial" font-size="20" font-weight="700">CATÁLOGO</text><g fill="#d2e2e3" font-family="Arial" font-size="16"><text x="654" y="232">Buscar producto</text><text x="654" y="286">Cliente de muestra</text><text x="654" y="340">Crédito</text><text x="654" y="394">Importar CSV</text></g><g fill="#8ed5ce"><rect x="654" y="246" width="206" height="6" rx="3"/><rect x="654" y="300" width="154" height="6" rx="3"/><rect x="654" y="354" width="177" height="6" rx="3"/></g>
</svg>