<svg xmlns="http://www.w3.org/2000/svg" viewBox="0 0 960 600" role="img" aria-labelledby="title desc">
  <title id="title">Mockup de backend escolar administrativo</title>
  <desc id="desc">Dashboard ficticio con usuarios, permisos y modulos escolares demo.</desc>
  <rect width="960" height="600" rx="32" fill="#eef4fb"/>
  <rect x="34" y="36" width="892" height="528" rx="26" fill="#ffffff" stroke="#cfdae8"/>
  <rect x="70" y="76" width="820" height="78" rx="18" fill="#123039"/>
  <text x="102" y="126" fill="#ffffff" font-family="Inter, Arial" font-size="28" font-weight="900">SchoolBack</text>
  <text x="732" y="126" fill="#a8c8ef" font-family="Inter, Arial" font-size="17" font-weight="800">API demo</text>
  <rect x="70" y="190" width="250" height="126" rx="18" fill="#f8fbfa" stroke="#d8e3e5"/>
  <text x="98" y="230" fill="#5c6f76" font-family="Inter, Arial" font-size="18" font-weight="700">Usuarios</text>
  <text x="98" y="278" fill="#123039" font-family="Inter, Arial" font-size="48" font-weight="900">86</text>
  <rect x="354" y="190" width="250" height="126" rx="18" fill="#f5f8fc" stroke="#cfdae8"/>
  <text x="382" y="230" fill="#5c6f76" font-family="Inter, Arial" font-size="18" font-weight="700">Permisos</text>
  <text x="382" y="278" fill="#123039" font-family="Inter, Arial" font-size="48" font-weight="900">12</text>
  <rect x="638" y="190" width="252" height="126" rx="18" fill="#eff5f0" stroke="#d4e2d8"/>
  <text x="666" y="230" fill="#5c6f76" font-family="Inter, Arial" font-size="18" font-weight="700">Modulos</text>
  <text x="666" y="278" fill="#123039" font-family="Inter, Arial" font-size="48" font-weight="900">9</text>
  <rect x="70" y="352" width="820" height="166" rx="18" fill="#fbfcfb" stroke="#d8e3e5"/>
  <text x="102" y="394" fill="#123039" font-family="Inter, Arial" font-size="22" font-weight="850">Control de acceso</text>
  <line x1="102" y1="422" x2="858" y2="422" stroke="#d8e3e5" stroke-width="2"/>
  <text x="102" y="462" fill="#5c6f76" font-family="Inter, Arial" font-size="17" font-weight="700">Usuario demo</text>
  <text x="376" y="462" fill="#315f91" font-family="Inter, Arial" font-size="17" font-weight="800">Rol administrativo</text>
  <text x="686" y="462" fill="#167d86" font-family="Inter, Arial" font-size="17" font-weight="800">Activo</text>
  <text x="102" y="500" fill="#5c6f76" font-family="Inter, Arial" font-size="17" font-weight="700">Modulo demo</text>
  <text x="376" y="500" fill="#315f91" font-family="Inter, Arial" font-size="17" font-weight="800">Permiso lectura</text>
  <text x="686" y="500" fill="#4f7a5c" font-family="Inter, Arial" font-size="17" font-weight="800">Validado</text>
</svg>
